<?xml version="1.0" encoding="UTF-8"?>
<svg id="Layer_2" data-name="Layer 2" xmlns="http://www.w3.org/2000/svg" viewBox="0 0 355.47 286.53">
  <defs>
    <style>
      .cls-1 {
        fill: #101216;
        stroke: #231f20;
      }

      .cls-1, .cls-2 {
        stroke-miterlimit: 10;
      }

      .cls-3 {
        fill: #fff;
        stroke-width: 0px;
      }

      .cls-2 {
        fill: none;
        stroke: #fff;
        stroke-linecap: round;
        stroke-width: 9px;
      }
    </style>
  </defs>
  <g id="Layer_1-2" data-name="Layer 1">
    <rect class="cls-1" x=".5" y=".5" width="354.47" height="285.53"/>
    <g>
      <path class="cls-3" d="m31.92,233.55v-118.9c0-.11.13-.18.22-.12l20.67,13.9s.06.07.06.12v105c0,1.09.88,1.97,1.97,1.97h5.06c1.09,0,1.97-.88,1.97-1.97v-98.76c0-.11.13-.18.22-.12l148.41,99.8c1.01.68,2.2,1.04,3.41,1.04h4.65c1.09,0,1.97-.88,1.97-1.97l-.15-71.32c0-.11.12-.18.22-.12l20.74,12.96s.07.07.07.12v58.37c0,1.09.88,1.97,1.97,1.97h5.06c1.09,0,1.97-.88,1.97-1.97v-52.57c0-.11.12-.18.22-.12l86.9,54.29c.39.25.85.38,1.31.38h15.61c.19,0,.27-.25.1-.36l-136.12-85.04c-1.42-.89-3.22-.93-4.68-.12-1.46.81-2.37,2.36-2.37,4.04l.15,69.99c0,.11-.13.18-.22.12L30.08,102.3c-1.74-1.15-4.06-1.02-5.68.46-1,.91-1.48,2.25-1.48,3.6v127.19c0,1.09.88,1.97,1.97,1.97h5.06c1.09,0,1.97-.88,1.97-1.97Z"/>
      <circle class="cls-2" cx="42.75" cy="43.01" r="37.3"/>
      <g>
        <path class="cls-3" d="m26.67,270.49v14.66h-3.43v-14.66h3.43Z"/>
        <path class="cls-3" d="m51.38,282.25h5.83v2.9h-9.31v-14.66h3.48v11.76Z"/>
        <path class="cls-3" d="m80.6,270.49v14.66h-3.43v-14.66h3.43Z"/>
        <path class="cls-3" d="m109.08,270.49l4.59,14.66h-3.69l-.9-3.02h-4.74l-.92,3.02h-3.01l4.7-14.66h3.98Zm-3.92,8.94h3.11l-1.54-5.15-1.57,5.15Z"/>
        <path class="cls-3" d="m163.99,285.15l-3.62-11.96v11.96h-2.88v-14.66h5.35l2.57,8.78,2.71-8.78h5.37v14.66h-3.46v-11.96l-3.69,11.96h-2.35Z"/>
        <path class="cls-3" d="m201.95,270.49l4.59,14.66h-3.69l-.9-3.02h-4.74l-.92,3.02h-3.01l4.7-14.66h3.98Zm-3.92,8.94h3.11l-1.54-5.15-1.57,5.15Z"/>
        <path class="cls-3" d="m234.62,270.49v2.9h-3.63v11.76h-3.48v-11.76h-3.65v-2.9h10.76Z"/>
        <path class="cls-3" d="m257.87,270.49v14.66h-3.43v-14.66h3.43Z"/>
        <path class="cls-3" d="m286.35,270.49l4.59,14.66h-3.69l-.9-3.02h-4.74l-.92,3.02h-3.01l4.7-14.66h3.98Zm-3.92,8.94h3.11l-1.54-5.15-1.57,5.15Z"/>
        <path class="cls-3" d="m321.9,273.01l-7.41,9.33h7.64v2.8h-11.84v-2.49l7.39-9.4h-6.9v-2.77h11.11v2.52Z"/>
        <path class="cls-3" d="m353.74,270.49v14.66h-3.37v-6.05h-4.58v6.05h-3.37v-14.66h3.37v5.71h4.58v-5.71h3.37Z"/>
      </g>
    </g>
  </g>
</svg>